<svg id="Layer_1" data-name="Layer 1" xmlns="http://www.w3.org/2000/svg" xmlns:xlink="http://www.w3.org/1999/xlink" viewBox="0 0 170 60"><defs><style>.cls-1{fill:none;}.cls-2{fill:#191818;}.cls-3{fill:#3557a5;}.cls-4{fill:#243b7c;}.cls-5{fill:#fff;}.cls-6{fill:#f1f1f2;}.cls-7{clip-path:url(#clip-path);}</style><clipPath id="clip-path"><path class="cls-1" d="M8.88,39.71,18,45a5,5,0,0,0,5,0L32,39.71a5,5,0,0,0,2.48-4.3V24.91A5,5,0,0,0,32,20.61l-9.09-5.25a5,5,0,0,0-5,0L8.88,20.61a5,5,0,0,0-2.49,4.3v10.5A5,5,0,0,0,8.88,39.71Z"/></clipPath></defs><title>FN_170x60px</title><path d="M144,46.42l.13-1h1l-.13,1Z"/><path d="M149.37,45.56a6.36,6.36,0,0,0,1-.05,1.66,1.66,0,0,0,.56-.15.59.59,0,0,0,.27-.27,2.09,2.09,0,0,0,.12-.4h1.14a4.56,4.56,0,0,1-.12.58,1.55,1.55,0,0,1-.21.45,1.13,1.13,0,0,1-.34.35,1.9,1.9,0,0,1-.55.23,5,5,0,0,1-.82.13c-.32,0-.7,0-1.15,0a12.86,12.86,0,0,1-1.38-.07,2.7,2.7,0,0,1-.86-.24.93.93,0,0,1-.44-.46,1.69,1.69,0,0,1-.13-.72c0-.14,0-.29,0-.46s0-.35.07-.54.1-.63.16-.88a2.68,2.68,0,0,1,.24-.66,1.57,1.57,0,0,1,.39-.46,1.71,1.71,0,0,1,.59-.29,4.36,4.36,0,0,1,.85-.15c.34,0,.74,0,1.2,0a10.45,10.45,0,0,1,1.39.07,2.42,2.42,0,0,1,.83.21.79.79,0,0,1,.41.37,1.27,1.27,0,0,1,.1.54,1.85,1.85,0,0,1,0,.23c0,.09,0,.17,0,.26h-1.14a1.3,1.3,0,0,0,0-.35.37.37,0,0,0-.2-.23,1.55,1.55,0,0,0-.52-.13,8.06,8.06,0,0,0-1,0,7.45,7.45,0,0,0-1.07.06,1.24,1.24,0,0,0-.59.23.88.88,0,0,0-.27.47c0,.21-.1.47-.15.8,0,.16,0,.31,0,.44a2.24,2.24,0,0,0,0,.34.92.92,0,0,0,.08.4.51.51,0,0,0,.26.24,1.6,1.6,0,0,0,.53.12C148.74,45.55,149,45.56,149.37,45.56Z"/><path d="M156.88,46.48q-.88,0-1.47-.06a3.14,3.14,0,0,1-.91-.21.93.93,0,0,1-.47-.42,1.8,1.8,0,0,1-.13-.71,4.42,4.42,0,0,1,0-.49c0-.18,0-.37.07-.59s.1-.65.16-.9a2.76,2.76,0,0,1,.24-.67,1.3,1.3,0,0,1,.38-.46,1.82,1.82,0,0,1,.61-.28,4.92,4.92,0,0,1,.91-.15c.36,0,.78,0,1.28,0a14.49,14.49,0,0,1,1.46.06,3,3,0,0,1,.91.22,1,1,0,0,1,.47.44,1.69,1.69,0,0,1,.13.72c0,.15,0,.31,0,.49s0,.36-.07.57-.11.65-.17.9a2.4,2.4,0,0,1-.23.67,1.58,1.58,0,0,1-.4.45,1.82,1.82,0,0,1-.61.28,5,5,0,0,1-.9.14C157.8,46.47,157.37,46.48,156.88,46.48Zm.13-.9a7.43,7.43,0,0,0,1.05-.06,1.61,1.61,0,0,0,.64-.2.78.78,0,0,0,.34-.38,2.33,2.33,0,0,0,.16-.6c0-.2.05-.37.07-.5s0-.24,0-.31a1.59,1.59,0,0,1,0-.17v-.1a.8.8,0,0,0-.09-.41.52.52,0,0,0-.3-.26,1.82,1.82,0,0,0-.57-.14c-.24,0-.55,0-.92,0a7.74,7.74,0,0,0-1.07.06,1.87,1.87,0,0,0-.64.19.72.72,0,0,0-.33.38,2.19,2.19,0,0,0-.15.6c0,.21-.06.39-.07.52s0,.23,0,.31,0,.13,0,.16a.38.38,0,0,0,0,.1.83.83,0,0,0,.09.41.58.58,0,0,0,.29.26,2.24,2.24,0,0,0,.58.14C156.32,45.56,156.63,45.58,157,45.58Z"/><path d="M168.22,46.42l.31-2.21c0-.18.05-.35.07-.5s0-.28.06-.41,0-.23.05-.34,0-.2,0-.3l-.4.57-.55.74L166,46.42h-1.17l-1-2.42-.16-.38c-.05-.11-.1-.22-.14-.33s-.09-.2-.13-.3l-.12-.33c0,.13,0,.25,0,.36s0,.23-.05.35,0,.24,0,.38,0,.29-.06.47l-.31,2.2h-1.11l.67-4.85H164l1.62,3.84,2.77-3.84H170l-.67,4.85Z"/><path d="M53.52,46.42l-2.17-2.58-.59-.7-.46-.58c0,.13,0,.25,0,.37s0,.25,0,.39,0,.28-.06.44,0,.35-.07.56l-.3,2.1H48.68l.67-4.85h1.58l2,2.41.37.45.28.34.23.28.18.24L54,45c0-.1,0-.21,0-.33a4.22,4.22,0,0,1,.06-.42c0-.16,0-.36.08-.58l.29-2.12h1.15l-.68,4.85Z"/><path d="M56.54,46.42l.67-4.85h5.16l-.14,1h-4l-.11.85H62l-.13.91H58l-.16,1.11h4.05l-.13,1Z"/><path d="M65,46.42l.54-3.88H63.49l.14-1h5.3l-.13,1H66.74l-.54,3.88Z"/><path d="M71.32,46.42l.54-3.88H69.8l.14-1h5.3l-.13,1h-2l-.55,3.88Z"/><path d="M75.92,46.42l.68-4.85h1.2l-.68,4.85Z"/><path d="M82.27,45.56a6.44,6.44,0,0,0,1-.05,1.59,1.59,0,0,0,.55-.15.59.59,0,0,0,.27-.27,3.14,3.14,0,0,0,.13-.4h1.14c0,.21-.08.4-.13.58a1.86,1.86,0,0,1-.2.45,1.17,1.17,0,0,1-.35.35,1.9,1.9,0,0,1-.55.23,4.91,4.91,0,0,1-.81.13c-.32,0-.71,0-1.15,0a12.57,12.57,0,0,1-1.38-.07,2.62,2.62,0,0,1-.86-.24,1,1,0,0,1-.45-.46,1.87,1.87,0,0,1-.12-.72,3.78,3.78,0,0,1,0-.46c0-.17,0-.35.06-.54s.1-.63.16-.88a2.33,2.33,0,0,1,.25-.66A1.7,1.7,0,0,1,80.2,42a1.81,1.81,0,0,1,.59-.29,4.47,4.47,0,0,1,.86-.15c.33,0,.73,0,1.19,0a10.62,10.62,0,0,1,1.4.07,2.56,2.56,0,0,1,.83.21.77.77,0,0,1,.4.37,1.27,1.27,0,0,1,.1.54,1.85,1.85,0,0,1,0,.23,2.28,2.28,0,0,1,0,.26H84.4a1,1,0,0,0,0-.35.34.34,0,0,0-.2-.23,1.55,1.55,0,0,0-.51-.13,8.06,8.06,0,0,0-1,0,7.51,7.51,0,0,0-1.08.06,1.2,1.2,0,0,0-.58.23.83.83,0,0,0-.28.47c0,.21-.1.47-.15.8,0,.16,0,.31-.05.44a2.12,2.12,0,0,0,0,.34.93.93,0,0,0,.07.4.56.56,0,0,0,.26.24,1.66,1.66,0,0,0,.53.12C81.63,45.55,81.92,45.56,82.27,45.56Z"/><path d="M91.54,45.42H88.32l-.68,1H86.37l3.34-4.85h1.53l1.92,4.85H91.93Zm-.34-.88c-.14-.36-.26-.66-.35-.91l-.23-.6c-.06-.16-.11-.3-.14-.41s-.07-.21-.1-.3l-.19.31-.26.4c-.11.17-.24.37-.41.61l-.61.9Z"/><path d="M100.51,42.38a1.66,1.66,0,0,1,0,.32,1.83,1.83,0,0,1-.07.32H99.29l0-.12a.81.81,0,0,0,0-.16.25.25,0,0,0,0-.15.34.34,0,0,0-.2-.11,3.39,3.39,0,0,0-.44,0c-.19,0-.44,0-.74,0h-.73a3,3,0,0,0-.49,0,1.37,1.37,0,0,0-.31.08.52.52,0,0,0-.18.13.75.75,0,0,0-.08.18,1.49,1.49,0,0,0,0,.21.29.29,0,0,0,0,.14.17.17,0,0,0,.09.1.91.91,0,0,0,.17.08l.28,0c.16,0,.36.05.61.07l.79,0a9.72,9.72,0,0,1,1.07.07,2.47,2.47,0,0,1,.69.17.68.68,0,0,1,.37.31.89.89,0,0,1,.11.49,3.6,3.6,0,0,1,0,.56,2,2,0,0,1-.19.54,1.41,1.41,0,0,1-.34.39,1.75,1.75,0,0,1-.55.24,4,4,0,0,1-.79.12c-.31,0-.67,0-1.09,0s-1,0-1.35,0a3.51,3.51,0,0,1-.84-.17.74.74,0,0,1-.56-.78,2.55,2.55,0,0,1,.08-.61h1.16l0,.14a.81.81,0,0,0,0,.16.32.32,0,0,0,.06.2.48.48,0,0,0,.25.13,2.72,2.72,0,0,0,.5.06l.84,0,.7,0a2.94,2.94,0,0,0,.47,0,.9.9,0,0,0,.29-.09.29.29,0,0,0,.15-.14.48.48,0,0,0,.07-.2,1.5,1.5,0,0,0,0-.22.29.29,0,0,0,0-.16.27.27,0,0,0-.14-.11,1.45,1.45,0,0,0-.29-.06,4,4,0,0,0-.46,0l-.46,0-.5,0-.63-.05a4.91,4.91,0,0,1-.67-.08,1.38,1.38,0,0,1-.73-.33.92.92,0,0,1-.27-.73,3.5,3.5,0,0,1,0-.54,1.81,1.81,0,0,1,.2-.52,1,1,0,0,1,.33-.34,2,2,0,0,1,.55-.22,5.45,5.45,0,0,1,.82-.11c.32,0,.7,0,1.15,0s.89,0,1.21,0a3.83,3.83,0,0,1,.77.14.78.78,0,0,1,.4.27A.76.76,0,0,1,100.51,42.38Z"/><path d="M101.61,46.42l.68-4.85h1.2l-.68,4.85Z"/><path d="M109.28,46.42l-2.17-2.58-.58-.7c-.16-.2-.32-.39-.46-.58,0,.13,0,.25,0,.37s0,.25,0,.39,0,.28-.06.44-.05.35-.08.56l-.29,2.1h-1.11l.67-4.85h1.58l2,2.41.37.45.28.34.22.28.19.24a1.24,1.24,0,0,1,0-.27c0-.1,0-.21,0-.33s0-.26,0-.42,0-.36.08-.58l.3-2.12h1.14l-.67,4.85Z"/><path d="M115.43,46.48a14.49,14.49,0,0,1-1.46-.06,3.13,3.13,0,0,1-.92-.21.87.87,0,0,1-.46-.42,1.64,1.64,0,0,1-.13-.71,4.42,4.42,0,0,1,0-.49c0-.18,0-.37.07-.59s.1-.65.15-.9a2.76,2.76,0,0,1,.24-.67,1.56,1.56,0,0,1,.38-.46,1.87,1.87,0,0,1,.62-.28,4.92,4.92,0,0,1,.91-.15c.35,0,.78,0,1.27,0a14.49,14.49,0,0,1,1.46.06,3.1,3.1,0,0,1,.92.22,1,1,0,0,1,.47.44,1.85,1.85,0,0,1,.13.72,4.42,4.42,0,0,1,0,.49c0,.17,0,.36-.07.57s-.1.65-.16.9a2.76,2.76,0,0,1-.24.67,1.41,1.41,0,0,1-.39.45,1.82,1.82,0,0,1-.61.28,5,5,0,0,1-.91.14C116.35,46.47,115.93,46.48,115.43,46.48Zm.13-.9a7.59,7.59,0,0,0,1.06-.06,1.67,1.67,0,0,0,.64-.2.81.81,0,0,0,.33-.38,2,2,0,0,0,.16-.6c0-.2,0-.37.07-.5s0-.24,0-.31,0-.14,0-.17v-.1a.81.81,0,0,0-.08-.41.6.6,0,0,0-.3-.26,1.82,1.82,0,0,0-.58-.14c-.24,0-.54,0-.91,0a7.64,7.64,0,0,0-1.07.06,1.8,1.8,0,0,0-.64.19A.78.78,0,0,0,114,43a3.27,3.27,0,0,0-.15.6c0,.21,0,.39-.07.52s0,.23,0,.31,0,.13,0,.16v.1a1,1,0,0,0,.08.41.6.6,0,0,0,.3.26,2.15,2.15,0,0,0,.57.14C114.87,45.56,115.18,45.58,115.56,45.58Z"/><path d="M125.55,46.42l.28-2h-3.74l-.28,2H120.6l.67-4.85h1.21l-.26,1.87H126l.26-1.87h1.21l-.67,4.85Z"/><path d="M128.38,46.42l.67-4.85h5.16l-.14,1h-4l-.12.85h3.95l-.13.91H129.8l-.15,1.11h4l-.13,1Z"/><path d="M140.15,46.42l-1.65-1.86-2.15,1.86H134.8l3.06-2.53-2.27-2.32h1.54l1.53,1.69,2.08-1.69h1.49l-2.87,2.34,2.3,2.51Z"/><path class="cls-2" d="M154.05,17.59l.46-3.32h-1.76l.11-.82h4.55l-.11.82h-1.76l-.47,3.32Zm9.73,0L164,15.7c.09-.63.14-1,.19-1.32-.19.29-.44.62-.81,1.12l-1.54,2.09h-1L160,15.52c-.21-.48-.33-.75-.48-1.14,0,.44-.08.73-.17,1.33l-.26,1.88h-1l.58-4.14h1.42l1.39,3.28,2.38-3.28h1.4l-.58,4.14Z"/><polygon class="cls-2" points="73.48 36.25 74.78 26.73 57.29 26.73 55.98 36.25 50.33 36.25 53.49 13.68 59.14 13.68 57.92 22.36 75.41 22.36 76.63 13.68 82.28 13.68 79.13 36.25 73.48 36.25"/><polygon class="cls-2" points="84.96 36.25 88.11 13.68 112.21 13.68 111.55 18.32 92.75 18.32 92.22 22.27 110.69 22.27 110.06 26.53 91.59 26.53 90.88 31.7 109.8 31.7 109.17 36.25 84.96 36.25"/><polygon class="cls-2" points="139.4 36.25 131.65 27.51 121.53 36.25 114.22 36.25 128.62 24.4 117.93 13.53 125.18 13.53 132.4 21.43 142.19 13.53 149.19 13.53 135.66 24.49 146.5 36.25 139.4 36.25"/><g id="_Group_" data-name="&lt;Group&gt;"><path class="cls-3" d="M20.45,52.39a7.06,7.06,0,0,1-3.55-1L3.67,43.8A7.15,7.15,0,0,1,.11,37.64V22.36A7.15,7.15,0,0,1,3.67,16.2L16.9,8.57a7.06,7.06,0,0,1,7.11,0L37.24,16.2a7.14,7.14,0,0,1,3.55,6.16V37.64a7.14,7.14,0,0,1-3.55,6.16L24,51.43A7.07,7.07,0,0,1,20.45,52.39Z"/><path class="cls-4" d="M20.45,7.73A7,7,0,0,1,24,8.67L37.18,16.3a7,7,0,0,1,3.5,6.06V37.64a7,7,0,0,1-3.5,6.06L24,51.33a7,7,0,0,1-7,0L3.73,43.7a7,7,0,0,1-3.5-6.06V22.36a7,7,0,0,1,3.5-6.06L17,8.67a7,7,0,0,1,3.5-.94m0-.23a7.19,7.19,0,0,0-3.61,1L3.62,16.1A7.24,7.24,0,0,0,0,22.36V37.64A7.24,7.24,0,0,0,3.62,43.9l13.22,7.63a7.22,7.22,0,0,0,7.23,0L37.29,43.9a7.24,7.24,0,0,0,3.62-6.26V22.36a7.24,7.24,0,0,0-3.62-6.26L24.07,8.47a7.2,7.2,0,0,0-3.62-1Z"/></g><path class="cls-5" d="M.17,34.2V25.92H1.22a1.14,1.14,0,0,1,1.14,1.14v6A1.14,1.14,0,0,1,1.22,34.2Z"/><path class="cls-4" d="M1.22,26a1.09,1.09,0,0,1,1.09,1.09v6a1.08,1.08,0,0,1-1.09,1.08h-1V26h1m0-.11H.12v8.4h1.1a1.2,1.2,0,0,0,1.2-1.2v-6a1.2,1.2,0,0,0-1.2-1.2Z"/><path class="cls-5" d="M7.57,16.43a1.15,1.15,0,0,1-1-.56L6,14.92l7.17-4.15.55.94a1.15,1.15,0,0,1,.13.87,1.12,1.12,0,0,1-.54.7l-5.19,3a1.16,1.16,0,0,1-.57.15Z"/><path class="cls-4" d="M13.17,10.85l.53.89a1.08,1.08,0,0,1-.4,1.49l-5.19,3a1.06,1.06,0,0,1-.54.14,1.08,1.08,0,0,1-.94-.53l-.53-.9,7.07-4.09m0-.15-.09.05L6,14.84l-.1.06L6,15l.53.9a1.22,1.22,0,0,0,1,.59,1.28,1.28,0,0,0,.6-.16l5.19-3a1.2,1.2,0,0,0,.43-1.65l-.52-.89-.06-.09Z"/><path class="cls-5" d="M32.37,15.87a1.16,1.16,0,0,1-.57-.15l-5.19-3a1.12,1.12,0,0,1-.54-.7,1.15,1.15,0,0,1,.13-.87l.55-.93,7.17,4.14-.56,1a1.15,1.15,0,0,1-1,.56Z"/><path class="cls-4" d="M26.77,10.29l7.07,4.09-.53.9a1.09,1.09,0,0,1-.94.54,1.08,1.08,0,0,1-.54-.15l-5.19-3a1.08,1.08,0,0,1-.4-1.49l.53-.89m0-.15-.06.09-.52.89a1.2,1.2,0,0,0,.43,1.65l5.19,3a1.28,1.28,0,0,0,.6.16,1.22,1.22,0,0,0,1-.59l.53-.9.06-.1-.1-.06-7.08-4.09-.09,0Z"/><path class="cls-5" d="M39.69,34.2a1.14,1.14,0,0,1-1.14-1.14v-6a1.14,1.14,0,0,1,1.14-1.14h1V34.2Z"/><path class="cls-4" d="M40.68,26v8.17h-1a1.08,1.08,0,0,1-1.09-1.08v-6A1.09,1.09,0,0,1,39.69,26h1m.11-.11h-1.1a1.2,1.2,0,0,0-1.2,1.2v6a1.2,1.2,0,0,0,1.2,1.2h1.1v-8.4Z"/><path class="cls-5" d="M6.11,45.13l.51-.86a1.14,1.14,0,0,1,1.55-.41l5.2,3a1.14,1.14,0,0,1,.53.7,1.1,1.1,0,0,1-.12.87l-.5.85Z"/><path class="cls-4" d="M7.6,43.76a1.11,1.11,0,0,1,.55.15l5.19,3a1.08,1.08,0,0,1,.39,1.49l-.47.8L6.18,45.11l.49-.81a1.07,1.07,0,0,1,.93-.54m0-.11a1.18,1.18,0,0,0-1,.59l-.48.82L6,45.15l.1.06L13.2,49.3l.1.05.06-.09.47-.8a1.23,1.23,0,0,0,.13-.92,1.18,1.18,0,0,0-.56-.73l-5.2-3a1.15,1.15,0,0,0-.6-.16Z"/><path class="cls-5" d="M26.16,49a1.11,1.11,0,0,1-.12-.87,1.14,1.14,0,0,1,.53-.7l5.2-3a1.12,1.12,0,0,1,1.55.41l.51.86-7.17,4.15Z"/><path class="cls-4" d="M32.34,44.32a1.07,1.07,0,0,1,.93.54l.49.81-7.08,4.09-.47-.8a1.08,1.08,0,0,1,.39-1.49l5.19-3a1.11,1.11,0,0,1,.55-.15m0-.11a1.15,1.15,0,0,0-.6.16l-5.2,3a1.18,1.18,0,0,0-.56.73,1.24,1.24,0,0,0,.13.92l.47.8.06.09.1,0,7.07-4.09.1-.06-.06-.1-.48-.81a1.18,1.18,0,0,0-1-.59Z"/><g id="_Group_2" data-name="&lt;Group&gt;"><path class="cls-4" d="M20.45,47.15c-.2,0-.41,0-.61,0a.12.12,0,0,1-.1-.13.11.11,0,0,1,.13-.1,5.87,5.87,0,0,0,1.11,0,.12.12,0,0,1,.13.1.11.11,0,0,1-.11.12A4.93,4.93,0,0,1,20.45,47.15Zm1.66-.26a.11.11,0,0,1,0-.22,4.65,4.65,0,0,0,1-.45.12.12,0,1,1,.12.2,6,6,0,0,1-1.07.47Zm-3.37,0h0a5.41,5.41,0,0,1-1-.46l0,0a.11.11,0,0,1,0-.16.11.11,0,0,1,.15,0l0,0a5.07,5.07,0,0,0,1,.44.12.12,0,0,1,.07.15A.12.12,0,0,1,18.74,46.87Zm5.4-1a.11.11,0,0,1-.06-.21l1-.57a.11.11,0,0,1,.15,0,.11.11,0,0,1,0,.16l-1,.57Zm-7.42,0h-.06l-1-.57a.13.13,0,0,1,0-.16.11.11,0,0,1,.15,0l1,.57a.1.1,0,0,1,0,.15A.1.1,0,0,1,16.72,45.83Zm9.39-1.11a.11.11,0,0,1-.09,0,.11.11,0,0,1,0-.16l1-.57a.12.12,0,0,1,.16,0,.13.13,0,0,1,0,.16l-1,.57Zm-11.37,0h-.06l-1-.58a.11.11,0,1,1,.12-.19l1,.57a.11.11,0,0,1,0,.15A.11.11,0,0,1,14.74,44.69Zm13.35-1.11a.11.11,0,0,1-.1-.06.11.11,0,0,1,0-.15l1-.57a.11.11,0,0,1,.16,0,.13.13,0,0,1,0,.16l-1,.57Zm-15.33,0,0,0-1-.57a.11.11,0,0,1,.11-.19l1,.57a.11.11,0,0,1,0,.15A.11.11,0,0,1,12.76,43.55Zm17.31-1.11a.11.11,0,0,1-.1-.06.1.1,0,0,1,0-.15l1-.57a.11.11,0,0,1,.11.19l-1,.57S30.09,42.44,30.07,42.44Zm-19.28,0-.06,0-1-.57a.11.11,0,0,1,0-.15.12.12,0,0,1,.16-.05l1,.58a.11.11,0,0,1,.05.15A.12.12,0,0,1,10.79,42.41ZM32,41.3a.12.12,0,0,1-.1-.06.11.11,0,0,1,0-.15l1-.57a.11.11,0,0,1,.16,0,.11.11,0,0,1,0,.15l-1,.57Zm-23.23,0-.06,0-1-.57-.11-.06a.12.12,0,0,1,0-.16.11.11,0,0,1,.16,0l.1,0,1,.57a.13.13,0,0,1,0,.16A.11.11,0,0,1,8.81,41.27ZM34,40.07a.11.11,0,0,1-.08-.2,5.36,5.36,0,0,0,.76-.82.11.11,0,0,1,.16,0,.11.11,0,0,1,0,.16A5.28,5.28,0,0,1,34,40,.09.09,0,0,1,34,40.07ZM6.82,40a.11.11,0,0,1-.08,0A6.31,6.31,0,0,1,6,39a.11.11,0,0,1,0-.16.11.11,0,0,1,.16,0,5.24,5.24,0,0,0,.72.84.11.11,0,0,1,0,.16A.09.09,0,0,1,6.82,40Zm28.49-1.7h-.05a.12.12,0,0,1-.06-.15A5.1,5.1,0,0,0,35.56,37a.11.11,0,0,1,.13-.09.12.12,0,0,1,.09.14,5.27,5.27,0,0,1-.37,1.1A.1.1,0,0,1,35.31,38.25ZM5.53,38.09A.12.12,0,0,1,5.42,38a5.53,5.53,0,0,1-.33-1.12.11.11,0,0,1,.22,0,6,6,0,0,0,.32,1.07.11.11,0,0,1-.06.15ZM35.8,36h0a.12.12,0,0,1-.12-.12V34.78a.11.11,0,0,1,.12-.11.11.11,0,0,1,.11.11v1.15A.11.11,0,0,1,35.8,36ZM5.11,35.86A.11.11,0,0,1,5,35.74V34.6a.11.11,0,0,1,.22,0v1.14A.11.11,0,0,1,5.11,35.86Zm30.69-2.1a.12.12,0,0,1-.12-.12V32.5a.11.11,0,0,1,.12-.11.11.11,0,0,1,.11.11v1.14A.11.11,0,0,1,35.8,33.76ZM5.11,33.58A.11.11,0,0,1,5,33.46V32.32a.11.11,0,0,1,.22,0v1.14A.11.11,0,0,1,5.11,33.58ZM35.8,31.47a.11.11,0,0,1-.12-.11V30.22a.11.11,0,0,1,.12-.11.11.11,0,0,1,.11.11v1.14A.11.11,0,0,1,35.8,31.47ZM5.11,31.29A.11.11,0,0,1,5,31.18V30a.11.11,0,0,1,.22,0v1.14A.11.11,0,0,1,5.11,31.29Zm30.69-2.1a.11.11,0,0,1-.12-.11V27.94a.12.12,0,0,1,.12-.12.11.11,0,0,1,.11.12v1.14A.11.11,0,0,1,35.8,29.19ZM5.11,29A.11.11,0,0,1,5,28.9V27.76a.11.11,0,1,1,.22,0V28.9A.11.11,0,0,1,5.11,29Zm30.69-2.1a.11.11,0,0,1-.12-.11V25.66a.12.12,0,0,1,.12-.12.11.11,0,0,1,.11.12V26.8A.11.11,0,0,1,35.8,26.91ZM5.11,26.73A.11.11,0,0,1,5,26.62V25.48a.11.11,0,1,1,.22,0v1.14A.11.11,0,0,1,5.11,26.73Zm30.69-2.1a.12.12,0,0,1-.12-.12v-.08a5.14,5.14,0,0,0-.1-1,.11.11,0,0,1,.09-.13.13.13,0,0,1,.14.09,5.46,5.46,0,0,1,.1,1.07v.08A.11.11,0,0,1,35.8,24.63ZM5.11,24.45h0A.11.11,0,0,1,5,24.33a5,5,0,0,1,.14-1.15.12.12,0,0,1,.14-.09.11.11,0,0,1,.08.14,5.11,5.11,0,0,0-.13,1.11A.13.13,0,0,1,5.11,24.45Zm30.25-2a.12.12,0,0,1-.11-.07,5.52,5.52,0,0,0-.54-1,.1.1,0,0,1,0-.15.1.1,0,0,1,.15,0,5.11,5.11,0,0,1,.57,1,.11.11,0,0,1-.06.15ZM5.62,22.24h0a.11.11,0,0,1-.06-.15,6.31,6.31,0,0,1,.6-1,.11.11,0,0,1,.18.14,5.78,5.78,0,0,0-.57,1A.11.11,0,0,1,5.62,22.24Zm28.43-1.68a.11.11,0,0,1-.08,0,5.32,5.32,0,0,0-.89-.67.1.1,0,0,1,0-.15.1.1,0,0,1,.15,0,5.29,5.29,0,0,1,.94.69.11.11,0,0,1,0,.16A.09.09,0,0,1,34.05,20.56ZM7,20.44a.12.12,0,0,1-.08,0,.11.11,0,0,1,0-.16,5,5,0,0,1,.85-.6l.1-.07a.12.12,0,0,1,.16.05.11.11,0,0,1,0,.15l-.11.06a5.19,5.19,0,0,0-.81.58A.11.11,0,0,1,7,20.44Zm25.16-1.13-.06,0-1-.57a.11.11,0,0,1,0-.15.12.12,0,0,1,.16-.05l1,.57a.13.13,0,0,1,0,.16A.11.11,0,0,1,32.15,19.31ZM8.92,19.22a.11.11,0,0,1-.1-.06.12.12,0,0,1,0-.16l1-.57a.11.11,0,0,1,.15.05.1.1,0,0,1,0,.15L9,19.2Zm21.25-1-.06,0-1-.57a.11.11,0,0,1,0-.16.11.11,0,0,1,.15,0l1,.57a.12.12,0,0,1,0,.16A.11.11,0,0,1,30.17,18.17Zm-19.28-.09a.12.12,0,0,1-.1-.06.12.12,0,0,1,.05-.16l1-.57a.12.12,0,1,1,.12.2l-1,.57ZM28.2,17l-.06,0-1-.57a.12.12,0,0,1,0-.16.11.11,0,0,1,.15,0l1,.57a.11.11,0,0,1,0,.16A.11.11,0,0,1,28.2,17Zm-15.33-.09a.13.13,0,0,1-.1-.06.12.12,0,0,1,0-.16l1-.57a.13.13,0,0,1,.16,0,.12.12,0,0,1-.05.16l-1,.57Zm13.35-1.06h-.06l-1-.57a.12.12,0,1,1,.12-.2l1,.57a.11.11,0,0,1-.06.21Zm-11.37-.09a.12.12,0,0,1-.1,0,.11.11,0,0,1,0-.16l1-.57a.11.11,0,0,1,.11.2l-1,.57Zm9.39-1h0l-1-.57a.11.11,0,0,1,0-.16.11.11,0,0,1,.15,0l1,.57a.11.11,0,0,1-.06.21Zm-7.42-.09a.11.11,0,0,1-.06-.21l.93-.53.06,0a.12.12,0,0,1,.12.2l-.07,0-.92.53Zm5.4-1h0a5.93,5.93,0,0,0-1.09-.25.11.11,0,0,1-.1-.12.11.11,0,0,1,.13-.1,5,5,0,0,1,1.13.26.11.11,0,0,1,.07.14A.12.12,0,0,1,22.22,13.69Zm-3.36,0a.12.12,0,0,1-.11-.09.11.11,0,0,1,.07-.14A5.6,5.6,0,0,1,20,13.19a.11.11,0,0,1,.13.1.13.13,0,0,1-.11.13,5.12,5.12,0,0,0-1.09.21Z"/></g><g id="_Group_3" data-name="&lt;Group&gt;"><path class="cls-6" d="M8.88,39.71,18,45a5,5,0,0,0,5,0L32,39.71a5,5,0,0,0,2.48-4.3V24.91A5,5,0,0,0,32,20.61l-9.09-5.25a5,5,0,0,0-5,0L8.88,20.61a5,5,0,0,0-2.49,4.3v10.5A5,5,0,0,0,8.88,39.71Z"/><path class="cls-4" d="M20.45,45.74a5.15,5.15,0,0,1-2.54-.68L8.82,39.81a5.09,5.09,0,0,1-2.54-4.4V24.91a5.08,5.08,0,0,1,2.54-4.4l9.09-5.25a5.09,5.09,0,0,1,5.09,0l9.09,5.25a5.1,5.1,0,0,1,2.54,4.4v10.5a5.11,5.11,0,0,1-2.54,4.4L23,45.06A5.15,5.15,0,0,1,20.45,45.74ZM8.94,39.61,18,44.86a4.88,4.88,0,0,0,4.85,0L32,39.61a4.85,4.85,0,0,0,2.43-4.2V24.91A4.85,4.85,0,0,0,32,20.71l-9.09-5.25a4.83,4.83,0,0,0-4.85,0L8.94,20.71a4.85,4.85,0,0,0-2.43,4.2v10.5a4.85,4.85,0,0,0,2.43,4.2Z"/></g><g class="cls-7"><polygon class="cls-4" points="47.44 25.88 19.88 25.88 19.88 13.98 11.62 13.98 11.62 25.88 -2.17 25.88 -2.17 34.15 11.62 34.15 11.62 47.34 19.88 47.54 19.88 34.35 47.44 34.15 47.44 25.88"/></g></svg>