<svg xmlns="http://www.w3.org/2000/svg" x="0" y="0" viewBox="0 0 330.8 46.4" fill="#6746d0">
  <path d="M113.3 34.5l-7.4-9h-6.5V46h6.9v-9.5L114 46h6.1V25.5h-6.9v9zm16.1 3.6h10.1v-4.9h-10.1v-2.1h10.8v-5.6h-17.6V46h17.8v-5.6h-11v-2.3zm12-6.8h6.1V46h6.9V31.3h6.1v-5.8h-19.1v5.8zm19.8 0h6.1V46h6.9V31.3h6.1v-5.8h-19.1v5.8zM182 46h6.9V25.5H182V46zm38.1-20.7l-8.3 19.8-6.8-10.7 7.2-8.9h-8l-5.9 7.7v-7.7h-6.9V46h6.9v-4.4l1.8-2.1 4 6.5h14.7l1.1-2.8h7.2l1.1 2.8h7.5L227 25.4h-6.9zm1.4 13l1.9-5 1.9 5h-3.8zm30.6-3.5c-.8-.5-1.7-.9-2.8-1.3-1.1-.3-2.3-.6-3.6-.8-.6-.1-1-.2-1.4-.3-.4-.1-.6-.2-.8-.3-.2-.1-.3-.2-.4-.3-.1-.1-.1-.2-.1-.4v-.1c0-.3.1-.5.4-.6.2-.2.6-.2 1.1-.2 1 0 2 .2 3.1.5s2.1.8 3.1 1.5l3.4-4.6c-1.2-.9-2.6-1.6-4.1-2.1-1.5-.5-3.3-.7-5.3-.7-1.4 0-2.7.2-3.8.5-1.1.4-2 .8-2.7 1.5-.7.6-1.3 1.4-1.7 2.2-.4.8-.6 1.7-.6 2.7v.1c0 1.1.2 2 .7 2.7.5.7 1.1 1.3 1.9 1.8.8.5 1.7.9 2.8 1.2 1.1.3 2.2.6 3.3.8 1.1.2 1.9.4 2.3.6.4.2.6.4.6.7v.1c0 .3-.1.5-.4.6-.3.2-.7.2-1.4.2-1.2 0-2.5-.2-3.7-.6-1.2-.4-2.4-1-3.5-1.8l-3.7 4.4c1.3 1.2 2.9 2 4.7 2.6 1.8.6 3.8.9 5.9.9 1.4 0 2.6-.2 3.8-.5 1.1-.3 2.1-.8 2.9-1.4.8-.6 1.4-1.3 1.8-2.2.4-.9.6-1.8.6-2.9v-.1c0-1-.2-1.9-.6-2.6-.5-.6-1.1-1.2-1.8-1.8zm4 11.2h6.9V25.5h-6.9V46zm23.2-11.5l-7.4-9h-6.5V46h6.9v-9.5L280 46h6.1V25.5h-6.9v9zm28.1-6.4c-1-1-2.2-1.7-3.6-2.3-1.4-.5-2.9-.8-4.4-.8s-3.1.3-4.5.8c-1.4.6-2.6 1.3-3.6 2.3-1 1-1.8 2.1-2.4 3.4-.6 1.3-.9 2.7-.9 4.2v.1c0 1.5.3 2.9.9 4.2.6 1.3 1.4 2.4 2.4 3.4s2.2 1.7 3.6 2.3c1.4.5 2.9.8 4.4.8s3.1-.3 4.5-.8c1.4-.6 2.6-1.3 3.6-2.3 1-1 1.8-2.1 2.4-3.4.6-1.3.9-2.7.9-4.2v-.1c0-1.5-.3-2.9-.9-4.2-.6-1.3-1.4-2.4-2.4-3.4zm-3.8 7.7c0 .6-.1 1.2-.3 1.7-.2.5-.5 1-.9 1.4-.4.4-.8.8-1.4 1-.5.3-1.1.4-1.8.4s-1.3-.1-1.8-.4c-.5-.3-1-.6-1.4-1-.4-.4-.7-.9-.9-1.5-.2-.6-.3-1.1-.3-1.7v-.1c0-.6.1-1.2.3-1.7.2-.5.5-1 .9-1.4.4-.4.8-.8 1.4-1 .5-.3 1.1-.4 1.8-.4s1.3.1 1.8.4c.5.3 1 .6 1.4 1 .4.4.7.9.9 1.5.2.5.3 1.1.3 1.8zm8.1-10.3v5.8h6.1V46h6.9V31.3h6.1v-5.8h-19.1zM84.8 22.9V4.8c1-.5 1.2-1.3 1.2-2.2C86 1.2 84.8 0 83.3 0c-1.4 0-2.7 1.2-2.7 2.6 0 .9.1 1.8 1.1 2.2v17.9h-2V6.6H46.4c-.5-3.1-3.1-5.5-6.3-5.5-3.2 0-5.8 2.4-6.3 5.5H0V43h79.8V30.8h3c2.3 0 4.2-1.9 4.2-4.2 0-1.6-1.2-3-2.2-3.7zm-57.9 15H5V11.6h21.9v26.3zm24 0h-22V11.6h21.9v26.3zm23.9 0H52.9V11.6h21.9v26.3zM12.6 22.7c1.5.1 2.7.8 4.5.6 0 0-5.4 3.1-5.4 8.3h7.7s-.5-7.4 3.8-11.8l-1.6-1.4s-1.6 1.6-5.2.2c0 0-2.8-1-5.7.6v-.7H8.4v6.4h2.2c0-.1.6-2.3 2-2.2zm24.4 0c1.5.1 2.7.8 4.5.6 0 0-5.4 3.1-5.4 8.3h7.7s-.5-7.4 3.8-11.8L46 18.4s-1.6 1.6-5.2.2c0 0-2.8-1-5.7.6v-.7h-2.3v6.4H35c0-.1.5-2.3 2-2.2zm24.2 0c1.5.1 2.7.8 4.5.6 0 0-5.4 3.1-5.4 8.3H68s-.5-7.4 3.8-11.8l-1.6-1.4s-1.6 1.6-5.2.2c0 0-2.8-1-5.7.6v-.7H57v6.4h2.2c0-.1.6-2.3 2-2.2zm42.6-6.7h2.2c1.4 0 2.7-.2 3.8-.5 1.2-.3 2.1-.8 3-1.4.8-.6 1.5-1.4 1.9-2.4.5-.9.7-2 .7-3.3 0-1.2-.2-2.3-.7-3.2-.5-.9-1.1-1.7-1.9-2.3-.8-.6-1.8-1.1-2.9-1.4-1.1-.3-2.4-.5-3.8-.5h-9.3v20.5h6.9V16zm0-9.4h1.9c.9 0 1.6.2 2.2.6.5.4.8.9.8 1.7V9c0 .7-.3 1.3-.8 1.7-.5.4-1.3.6-2.1.6h-1.9V6.6zm18.9 15l1.1-2.8h7.2l1.1 2.8h7.5L130.9 1H124l-8.7 20.6h7.4zM127.4 9l1.9 5h-3.8l1.9-5zm31.4 3.1c.7-1 1.1-2.3 1.1-3.8 0-1.1-.2-2-.5-2.8-.3-.8-.8-1.5-1.4-2.1-.7-.7-1.7-1.3-2.9-1.7-1.2-.4-2.7-.6-4.6-.6h-10.1v20.5h6.9v-5.9h1.5l3.9 5.9h7.9l-4.8-7c1.3-.6 2.3-1.4 3-2.5zM153 8.8c0 .6-.2 1.1-.7 1.5s-1.1.5-1.9.5h-3v-4h3c.8 0 1.4.2 1.9.5s.7.8.7 1.5zm21.8-.5h-6.3V1.1h-6.9v20.5h6.9v-7.3h6.3v7.3h6.9V1.1h-6.9v7.2zm24.6 13.3h14.2l1.1-2.8h7.2l1.1 2.8h7.5L221.8 1H215l-8.4 19.9L198.2 1h-6.9l-8.7 20.6h7.4l1.1-2.8h7.2l1.1 2.8zM218.3 9l1.9 5h-3.8l1.9-5zm-25.5 5l1.9-5 1.9 5h-3.8zm43.9 7.6h6.9V6.9h6.1V1.1h-19.1v5.8h6.1v14.7z"/>
</svg>
